<mxfile host="65bd71144e">
    <diagram id="QY0J3yIRYCRFlOXe8OWZ" name="Page-1">
        <mxGraphModel dx="2750" dy="985" grid="1" gridSize="10" guides="1" tooltips="1" connect="1" arrows="1" fold="1" page="1" pageScale="1" pageWidth="1100" pageHeight="850" math="0" shadow="0">
            <root>
                <mxCell id="0"/>
                <mxCell id="1" parent="0"/>
                <mxCell id="2" value="Database" style="swimlane;" vertex="1" parent="1">
                    <mxGeometry x="-220" y="208" width="200" height="200" as="geometry"/>
                </mxCell>
                <mxCell id="3" value="Microservices" style="swimlane;spacing=10;dashed=1;" vertex="1" parent="1">
                    <mxGeometry x="40" y="208" width="620" height="632" as="geometry"/>
                </mxCell>
                <mxCell id="13" value="" style="group;spacing=8;" vertex="1" connectable="0" parent="3">
                    <mxGeometry x="30" y="42" width="560" height="558" as="geometry"/>
                </mxCell>
                <mxCell id="11" value="Elastic Load Balancer" style="rounded=0;whiteSpace=wrap;html=1;align=left;verticalAlign=top;spacing=13;spacingLeft=5;" vertex="1" parent="13">
                    <mxGeometry width="560" height="558" as="geometry"/>
                </mxCell>
                <mxCell id="12" value="" style="shape=image;verticalLabelPosition=bottom;labelBackgroundColor=#ffffff;verticalAlign=top;aspect=fixed;imageAspect=0;image=data:image/png,iVBORw0KGgoAAAANSUhEUgAAAFAAAABQCAYAAACOEfKtAAAAAXNSR0IArs4c6QAAIHxJREFUeAGtXAnUXVdV3v+f5E/SzE2ahLZJOoVSSNMJB2gZWpkHFaW6gC6xFQVEBSdQcWldKrIW4MAsBayAS5eAFdC0WuaCVMC26UCllLYh6ZSpmaemid+w9zn3vVYXy8X58945Z+9vf/s7+07v3vfaiTc999ajE+E2McHRRLjHSHNZBOCciKNEcax5RQ/waUfnxgGCKmZkDBdZjza/50zkbI4jEeNpJdnExKRGttHb/WVrvZD2M5pNvtRpy8Cf9h6fCNqpoWmdiOlUXgVRj9lRriaTKhQxXmTHkmUIq8US73hF4s0LnsSC2eijCDExTfp7OhZTDjpbU4zsLt44phbLgHEfbT2+xkLyTW0YDwLVpHwIduFgGNc/WcnY16sF5kD2UUowmazFsyRHj4iDYZTQypDYMasxiFFLzJEjGNRuQoc2uLUZyHcz873lh37GUkP5iTRVV6MYOsihQqEf5DjSijdAZm0qTD0ZYJ/sMFmMyQAVDmM2j71YjWHj3szGuXq997ls5UNPcWxHjvRCDzEc6wgBzjl64aRzwAVAq7NZGe1GmPX2nMQ3nRwTqmToGaDm3rltHsZINze7NhSwWP90wEzM3RR/DODuTG76qtHHxtQcmdg2OfBWh0kdDpWc/rIVZfkqpjBHsAfV+Y3rkg7KyFRdEXWX3wPrss35HFhrGq7HNeNafP5lfiXL9XPa1ioX2DM57TWebhFJAgwF1+JIwsUQIzL6ccnxGHb68T5eBMUDS0DzGcwAtUlvIeUShuABvuK6zwQZTmLxUBu52JOb1lH9VGgbuTQh1OHOP4nzswjsGI+nj+5BOHL6nO73ZGVgBfe+n1Ocg3KoY4hNQRVPnQa3vgqXwRI0jinOKoIEi1NRUqliML/seUp5TP0Zk+dE1UuaGoO1jWktTVwhWzsnEmdKDZz/aGAPpAjRpxvjNmVITpCcW5CE7AuieRHDKruEIg8mhWRC7U04/3FTDu0KKnVFXHMqgI2U7sHDAE7QhvplKTuXawGiL92lQ8GKJx9axpm18lFE5XFexyuAb5F7IEbAmYN7lresEFDOIPOQkG0MY6M9wLatRmTF57igPNdpj+vb1S6um/myCZPzgXkEU1hqJJ753UQmbK2tsLwQKHVBU4f1cv12jOgvG7zUT8x0JpSdSZFF5wko8SJcfb7XoihEUGIUCGezkYIcCpCXQ7bGlwTK08RTQk4YTzzn5Re/J9qLU2sDyMU363d6zCWE2YFEDO2Ox4VKs8bQBtKFuFqvgoFtc4tLHu6B1iUchwTWYipIPUWLiBjnK7+T+F3xBDBRkhd+aJMXDucitxv2nyZWPvCUHte+x1hXRWY8OZkQrXoLpi0Lken6nlpKHVNxSSMeZh1sj8avQ7iIKpAJPWamGpO8L66ntJ2MdegzMePVy27FtPnwLk7bR20VSxKlN1fylMbqYZZ/pG+aTVBY9noNYhTHw3lgMwZY/SU/5Sjehy7HbPggPZaERPRoDxqIo01tDE8i/mvnTfsbWokEKFPinbmMEpSHR7OB2OcaWsj76DZc5GhmY/WhF0NHF6KiqNu26gtZmbrdHqHxVnZchblr8nymHTwdrp5s8GldSgQMsRWjosFbGAqlr7KDlZ8jaSAXnD1+ss4riZGfOCEbg85JCvWi/bkUt1Cpg0AM+Y4XMNKJsafo8mwHe62n63cu5WBc4xSSpNLb7aRlrfo6dCtHIEmdnDM2gNR1O2mHL7pteXQ8cUzHZOKlQL3k8BhDm40hVk2JtR5Nx3UhSpyJFkanAZKNNXL6FMGo3jzmu7PyfTRPYsHpowvYIYEi260cZqq+RRcR8VyL9zreYnGvqbnZhj5nyC0Et6VhmyGOi2CPG8nGA+oc9y2qhKaW3p6/Y5STXotRWnNb8JqLZsWZF82OJSumybBt4+G49QsH8DoIHXXn4iTikrau14VKERCgva4w6nl3Zj/uhZUfb7y0l4OyGVjNYL7Txi0iwZh12/gCXRwyZC4O1aqYrGc1CuqLGeb3ZvCizMnzGrHWYAY+iZm7aFq86NcWxKozZxat+setnhF8nf7UmXH1u/fEvp3U3z8CswLUOMyvdUEG+8rN4cj6oUHnQDmkuZXDixaa3iwGsvCv7o9xY8x/4ldy4ohQxUSoWGatrWhhJh7C6K9WW7cFg7PuPVuhmZVkisMA4S/M4u3e9kh88WO7Y9NtD4ti5ZOm4umXzI2Va6bi+a+bG598y+7U6AxiGWzN0fzGVHELK+3UVWAaOPYdQiemMJXNEemQcuF7vAtX8wGDcV5tN2e+wjtH/5ikeaETm0rKmrp813TWjx0TJ2HP24XiXfnbW+O/v3og9u44Enuxt93+HwfiI2/cHizsyjOnYs1FU+LgKlp+rh17cTvfZRZv1q5GMRWNmNyPae6NpMMXPaRoJ2P68ef9jb5ssLMNY4cC66OO/MDVRm8YRfdFFVf1zM/2WM8T1150jHxf+uiu2L/bG0IqM2b/nqPx5Y/tEWbNM2cxSdvnm3555WprqJzEN50cE8tDmH05tCISq+y8YHDMnlhvC+EdxPcMEQCCeozhXVodokxNJufsnObq8Zw3XRi3/ElZvjq0lqzQUuKeWw/kpnUhpIMxSLXxWz6kFwPr4lp/LjB12eZ8Dqw6gJGy1FgTztshbGcF1KwCWH0cKogimQhNQxOai5zDhvEi7fPeCwT/KQj25OAii5er0Bhe43Kuwwu2/KvtKQxiDh82W21EUrd4cfXTAxzKbAzVD/RnnDQkjuh+9JG3hfsQbong8RgIofzxowIovtowAcAyD22d07c+BJgnsVpUxfU9QXFZRMdkTthag4lcPcfR2LbpsNwrcMEglL6+YRx5InxsWzc9In87pTymfsfUOVHptQDq8Ys5JmvP4MSC6CRECqnEM/Wcek8UiB7MK9Y9Y+vlkmue8bUlK17zzE2cGrG0ialM9h7l9yljds7Xf26vgBf+3PyYOZfhsOaLambOiXgmrsRst3x+v3q+DfUzZzVyclqW0l097XzhIlIQh8oxTpQYCmLjO4lGGjaRDysm9pVRfuAU502YIWOYARGxJZLmXgSPCzr+PHHzhkNyzV88PS57x9I444LZMWfhZByzcCKecP6suPTtx8W8xdNiwy0H45bP7bemIqseGqFssDasMfXX2gpazxPzcyBX54IYyHMC5t0s4qyQSHXyzhh1wuNsIoKM59kFHKueODue9NT5ceLq2cEFzls8IyZxk3Bgz5HYdv+huO/Og3Hrdbti4+0HFS8KCocqSmCTHs7ohE95LDlOWjsrXvqmJcId2n9EOX7i14/VfPh2z80HY927d+bayJwE6pyNvPLkeiqe+WnXurGDGIX5ay/46lEv2k4G0Dluo7W+CBJGqxzFcnFMwn7GjMl46k8sjmdcjC2/yFdIuv6v9uA9B+MbV++Mmz6/Mx4+YKQZwcp/xV/6sOa1F86JF/3Kkpg2fSJu+/Le+Jf3bo8nnn9MnHXRXNzKTY/pMyZiK27lbv78vrgZe161tr7igmNo4xrYek6O/amPHtpVchawgK2HRWQSTLi3eJbHviShjQR6OpL9mvPnx4//8gmxaKlP2ls2HYxvfW1XfOe/9sSOzYdj9/bD4AjsiVPAzIjTzp0TT3zKvFhygvE7Hnw4Pv62+2Pjf3uPZIIJPL2p5kVNxNMuXhAXXuI97WtX7YzP/e0O41I/tXmh1O+fgpBDa8v+sdbkPIxNbNUDfGzOr0FMvOaCr+Crl4GDUfSlTWMWUvaOo31kjyQemOf9/PJ49iXL6Y5N39kX6654IO68aW9PCntfQN+iDD/t7Dnx3MuWxvGnzYpHHjkaX/i7bXHdxx/SkaaY1DaJYr7wNUvivOfN15fc13xwe3xz3e7MMaqROrRgriHX1PMb21ZLjHCKwhg9944R+6j+iVeff93Rus8UsQIaZUtOSraefHyLTsQlb14V5150rBb/6ffdF1/91FbHl/CR+IF4CRQ73+IpL14Uz/+lpTFt2kR885qd8Zn3bIbV+KmZk/HSNy6L0394Tjx88Ej80zs2xx1f9/FeBSJH1+mi0MZWh+HIxlfRwJ+SxCMbTePxBplfPy5ikVk1NwX3iUY6gYJwpPEkL5MjnvvK5Sre/j2H48rL74nvrt+j5DzheyP6UB9ymNFbzBcJL/z6zzwUm793KF725uPjyc9bEFs2HozrP7Uz5iyYFq/4w+PjhMfPin27Hom//+MHYtO38zAnMQilJqWW5FH9XiuvEagmQ9R45ee4Cp9m1YbYshc+Vce0J6+47PKWmFGFKAaaUsl4LzjwZ16wMC5+w0rteR/6/bviOzf6ntNSK57nIZMWj+Np9Dl2OOd58N47DuAiMV/nyL07D8dPvmF5LFs1M7Y/8HBc+bv3xoP3HHqUtqH+0fylo/c+Nww0VaEqUC4UWcKtny7OC5IPE0ClTTLoE8L9p/0NMWLALoyr3Etet0KpPvXeTSjebitiojZyukrqz4njtpwrhwXedfP+uPqKzcFz3ot/eVkcu3yGinrFb27Exx/c1/YEj9LP1HanevC2NeK2kMvr+x8fUBDX1y+A9MuqUb3172lwHRB9FqYATDT+om+IrfHTXrI0Fi2bio137I3rruK5ii3jqy9+8fJDNgqkNfDNWEdVbL+7+dqnH8LnRJ/jNmGP/NDvbMQjqkdGc2jpjHUb1c4UfQ/nmJUt/dIhWy/UaPxAH3De+NRv++BLJRu4VR51iGmxyJuJa9tN4GnqRT/rK+6n/3qTSSFt+JGhxHKNnZdiLYJL1iHBRWTrOBuu+fDmuOwtK3UOfPhgFkOaHKN4JhCH9WM1CJ6Isy+aE096+pxYetJUTM2cwPn0Ydz27Yv1n90LhGN0YeGQf+i5x7dWa4a968KE+vGOT7gO6k4TFQFvWSbz10sK4/GvW7WJOOXMefiQPCM2bzwQd9yAjxEZpK1cBOhrgRSnPBpQgkUQqlgDtCEG4fHdm/bhAcChWHLiVKx60uzYcBs+EEMHNygb8zmHeTg/Zv60ePkfLMcFZ/TxPud8nXH+7PjMX23XQ9eKJ5d2EurQBG+pWZbKwx4u5sTjLAuoRatnECGKst8rNCHtxJ15/kKmiVu+8pDmhJvHgZ2TqFwtMYkrLDeI9oa0o8viCElr3H69z638+MK5YqCBHPViHMe8Tbz4TUtVqF1bD+Ojzpb4y8s26XXVn28N2k7G7d+LX+8P4cP44RN5ULlVT/728j2zzoFVdRK5blyOhZGB9noKnB7hVp7upxu3f3Nno6WDNE7EdzZy+SlOiXU5aae/xyg/jIUr3x24i2FbumpKPtll4d5njaV/zdPn4vH+bBXq/a+/N2798h48zvcd0G3X7Y0rfuP+VkR+FdDWjLw6Kiwq80g9xj4vY8Bkysw3XYUrcRdtQbUYAnXocVANHPOXzNBs+wMH1ff4SvKDe564Y4uf9x23wrd72pBtodQHCZhTw9oLvWGvvXIbHu/zgoPWD4DYv+tIfO4jO2Q+61lzFMNJcZpquGEEzZ2CONeHRR15GtNycP2O0Tu3CndtnWdwTlQxAV6Ae1m2HdsONhFaCPAUw2/s1IDlWhVPHq7GQNh9VU4kOvpqRgJPdm3146pjl0/Fn6x7QgH+z/7uW/rDAxbW+pEPub+HR/9sx62YIa1twZW7tANDqdbvwg315+fAQvtQGnnWB5eScyF9PbJJwdgbIcRX01ZNdWWndyQHwaB3TbkXsajZwKW44ZWxfN9Hz9iWd6Cr8nelle8x9GfcILxxeg+sEmOh+giiio9SUwQrzz8WhVtzJ/aKWStnx4Jjp2LLprwfRSyrIdEcJw1jskJUqHjZCCeG6sCpvbvi0bPxfR6+NGfb/sChePuld8IGqyueMcQ5/pV/ckKceja+5lwzS+c/xrmIGYNcq+Bj24qPNczftFAD8TYKQ0NtBB9FtRZcsIzo7wTW4htpuUlEYr1CBaSLH6Rlz0SVbMjDKApToZJDfjqyiZn5k3/Is/A4P1PcvIGnCysof8Wzp239F3bJ9OxLF8fsufy1RSq2gJg9bzKe9cpFwtx4La/uXQQul+Kgs60p/dxe5Lc+vGOMAnLgQ8aC7NA4eW3PYBF4vOHbvjKe8UMLJOaxccY6j7kljqvK1g6nsjGHxsR4vPo8Xxge/J4vWLRX6/q9Dhbw7pv3xQJc5F7zrpWx5mlz9LMPPuJ/Isav/ssTcAGcHnev3x83Xrsnv0KonNbb1o80HEtJ02Ub8+MQLhlMrk2U77ZXUTjz4dXt66/bFs9+2Qmx9oJj46r3beh+0zALl9/sLZUplMfSBGWCVpY8OrOQE3jgOl9Rt1/PvQtRIKvDiem459TBdwQX3n/4s/vikstPjBWn43H/G323lGnV3YXiXfXnW5qJ69T6BiKlvuxSVgtrYb4Kjxemu01q/5horPC7t+yKXQ8dimU4D55+3gLcjezSA87hFihub4g890lU/ZApC4GkOruyMkmgEfKsPmduHHcin8Icwhfn+ySPvO0KjrGLyA2BHEDwcdcHfmNDnPuchbEWnwuXnTQzZsyajC14THbDv++KGz+Lo0cbgfn7tbQ2qJJQCbjZyMs/YjnWE3j0upUjgA8oCK0A2mjhIiRKRBZHI+18IHjt390bP/0rJ8dLXrsq3vqqmxHhhHTXsMfL6jcKEjQXjzlbz89cAMD+glctk4+PtKbjfpb3w8LqnWMWczTe1om44dqdOEx3movI+l4jczvMsUynnPIRqwSD9XNurOIA0A8stUBh0wkQbdzCJay+xuNjHyayH4/dP3kf9owDwbuSZ/zUckY2X2GUNhfY+BJHQbKJUyJaPM+N/GLqxNX+3cuK04+JV7/tZD1UGOWujz1dP0jwr+snF73ea7vGcW1EFbdixnXXXLgj/So8msALGWyCNLh4KiItWPThQ0fjH995t/wv/dWT4/Hn+FxluSoPU/mvkrPnakiAxqEXxl4O2VefPTd+/LUn6FndVe/ahGeAB3FOOyZe91enxOLjfRdU6Ipz7yOn9A8oxVtrzfSyjcbL1NRJPUgahjsR/nFvnbb2cZdcLjh2Rx4+XpIJ2nv6vGgEYt4ahg9s2KdHQKefh/MNLij3fGt3bL3fnwsLN4wZjrvf5SzfaSjez//RyTE1a1p85v34fuWft8WNX9gRp541N5afNBuPqRbG3bfujV1b/IMhxTX9VdZkh8ZaGT3EtiXkUuiv3KXJvQH1vRFtQ5wKqK8MM2clUMqWpahMJjEcZgwJv33DTl1MTjpjXvzQs4+LfbsPx4bb8b0IOYQbihaDSccEcWvzIe0rfs/Fu/5ft8a6D98vLM99N3x+RzzulNlxwqmz45wLF8YD9xzQo65G1vjGCgIZlZWaBvIHBfGCWoGEI9KtltL8MLc9sIyVRBlaYJHwKpRk6CqGFo5v/OK2tieuecoiPO5aFJs37dfVc1jsqnzFm3MiHn/uvLj08lPjR1+wBIdLxDVX3h//csW9ZGcKUfAjyvov7Yh5x86IVWfMwRV2ATbWI/hyyfe9xamAfOs26q8FsMAEeF72Wj/nskFH+VhejutQFuaSc69W2TWR06AKIr3HSe2sTsskAwHCge2cZyyJn3n9KfgOww8zH/ze/rj5K9vj9m/sjB0PHsLDBz8YWLhkpjBnPHkBvphaFEtX+PaKT3c++qd3xz23+ftkKGiLKF1c+rNeviyed6k/433p41vi6g8+SLOwQxzHpRPOVNzXNRKTBXtUfFt3boDK84pz1uGnHfwc5K3DQG794S8NmMCLyKRKgpjk8mci+yrxDHx/e+FPH68P2vNxr/z9tPvu3hf/8emt8fV/2xqHDiAJNI2ce5gwF1Lf6573rEVx8W+u0E87bsI58hN/cW+chb3yvOcs0jd406cmg7d/3/y3HXrxh/Req/XXDsI1q9Dk55gPL9JG7Sq70jPC9ZH1FeeuI8wAAgnCn/8Z7K3mcRVo2MtTidGP+05dOz/OetriWPWEubi9mtJjMH5pzu+Qt9x7MDZ+e2/c+KXtuCjw1pDxpSFzpo3C2+c4TtA4X33u3Pi5P1gVs+ZMi4P7H4mZs/3gwYj+fueNe+MTb78v9jyE8wCToHlDOCcLRnvTzyLINLAxbljYl5/9rzqxDYPaWPGD4EbYF6IEtPufkiMitYhAexEvDuLN5JWDga1g42JJmraRXjH2lf3Exx8Tr3/Pak5jB67M6z74QNx9C38zOBGnrp0Tz/+FZbHguBnBIv7Nmze2IhFPva4ne86yaWybcAR5V21HRvsvlSqG5a0Pm7TxhFknTRahWn1u87zsPvz5Oas1DBkvWTSnuuJkvmHjrPvo9R8xZSdmJAfmy0/2+XPHlkPxF6+5I9Z/cad+xLR728NxE8bvfN1dsROFPe2cOfq1w6h+srsxR/ucCBPnLe9gXfX7RJwIJBkgf2rXclBpYiuQ1J3IhIpK8j72HYE3VOFcACUU6YA3c1Qu5yNb5qM2kdc8pwwgpv4w/+Hn+vEUf8zUfqWf4cTu3XU4rv6QLzJPfg6eHtGHOL0wUdGSl/rhkE9A5hnUxzolwN/KMQEJ1bVAcTQbCcULS0IzgSDtrUQRzAWOtGaznUV1IxI2+kfypy2ZmJ86rICLwphTtKUrvQfeuR7/EU0aa6HGHY278IhL2FWzhCi/jPlGm+xOJmtLM7DRQZx+YjX+swaTcHEWq3kGiJy6yarGhC6EbRZQOEIKy16vsknQqL/wHVf+AW/FE4zGvWf6VJLRkHkw4GSQPzeYtJd+wkt/9bQxLhmEt82Hd3GygEnGgIRTAvYGXwgY0Bo1Fi7t7PzCKYDuBvbAQiphdzof8Y6ouRBVCxDX4mgv/upt84x3JGyn4FZPjOMbhz5cTNj4ULbyqUdAzzNkpz3n6hUuIbTTM/bfiThAToknxI222lOrqEzqBIUaj+cW1UVefWHVY4Hsy1YMfOpT9qHPNvPVYgvH2P9ct00UL/rFx8UsPcYfvRjw0f7zX+UP3d+4Bj/aRCv9tUr22sNSV+Xx6ch6HQdk6vePi0Q2vhif85AlF1lpSMGy+FWjSixne+t7sfEZVZxt2ovWQjkY24tGfOTQn61fwz0zH+guPG4qfusDp8fZFy6I+cfiB+34MuqsZy6IN7x/NXz8GLMnvn41fknRyDwabgy6bKV+a2Md/MpAztEmfmbtpzAa/6wDi8TTzjHLnf0AKwL4CK3PdXVXA4vsJBiNx26PT/nMT4R8zGF05+E87Z2bmWCmnmwcKxb9vIXT8StZPFLDPfVjNf707u/fugm/h/GX7WQprt7nnUrqAUAftqVXuXoMBWYBnc4kMA6BLDTmbLZzzMPSOJHIUn73slccg5nMitvGaHymFKeQFTfeiyO1cIHwG2IC3qZxzocRP/KCxXjs5Svzgzg/fv2a7fGf2PMQgRSpvziYFI16RnSbPGPsd3SO4Z+4+Mx/ZokUXASap41jkta9p2YtkX0kpXIXhBM2zzVKH/dia1aEhDmn0LkARrg1X8XDzAKU3TmIpW3chzmN3NMH8UIPHuuTzzYS1EwWx2Oo+MQVltTw9IuIDnGdwPNSDrcqSxxG/PNInW0I0omeZDmuC0yh2I+cX0iTxEM7+duH7UFwFYH62LqSnKWDHfl8hyCo36BNMUUgq8lG8sM/nA8YbC/R5ch8+raadKpB9SBTgTGXD+UWOf0Ys0jDrUKfFgo0tyHnjTBjZKNfXHZXjODepEB7wRpwjI36v/0+0fGOMKOjnKsYrNlF9BgCBZfWhGm9FmL9PTw1sxLUn98mQi8l43/9RHs58+RONi2UiTDJjlBNBkUiVOHouaBeXCJZ0GoeKR8J/Q9+MQjk4nojqDgGa0GtWGUjAVrF5ERiKBmeFue6dCWKTNFangHSUjuDOTKZ2Eq/1+SNpP/MgVVFMilg2tyD0HOV3krwFiDtOiciMc1tq2icwhU9vkDyl4NXO9LymV/lTHwlA3kVqBZmAtsVDw0ubgkkFzyZqDaQ4mEslM/pyM7/zEj5HcPCuThkZx7fa2hngG/8/5+oVZgcaBak3dY4leeVlr1fJOQfhaqnOEyLizaugXNGsNlPPF/4o0F29Cn8sWzEuEgcZUPICBZm5RKnnLD84H6fyKyWm5pT/3SedCXO9oFQLpBbh5H8l3uqWAZ2zonhi43flmeMfyDY9gGYvaeJMwNcBAcUhfOZju+MK508J0pvgpW+8hErO/c04HJNTGUc8///fp9IAuYdnqKozccRR2xMhD+CKre2as5qixNXt3WFMwHfEau92J6+V5i7cLWne14s3ouZvzUMyaHNQLMKZNtobJ81nTBxJbWaspNmJAdDwevil34a0VgL6lFeRrJ1TP5ClSZjWGVjASKp8RahCd60IDp6szgGIB4v5uysDHFyitSwDQBrY25lfxgufGXgnMr4B2XKQdEcW2Xn51zx1GuzcczDRi6MHcu5bdRBe4sHD5toxvSXjsEe6ExM3MRnEBOlPCV3BTgkVjksAsNhfPnEh4mEEFMhBcg5uxYPcGVt7mYzAw9rt1RIPziVL7mYNL0uh3IyPnElRpaMT4UjPIrzjsGhGDBoFxEKaQFJ7sQlyH0d3oWlqnY4K0mKaIex4yqh4iggsZRSh7NtiS+VQ12wEVNcrkjnKk5hGq78A94BJ9ddh3PFI0nqU6Yck2f49Ik+Ps6SnEoi28ibflQ0atGMcaJAMkSPJBRAh0gXZxuhxrv3lCaJE5OQ7a0VQ3HNnPmUWca2eM6wUdUQUxuH88zcetuG+jumOIqXKLdRfP5Gmjl5TgCBrnId63MC7Llwn9945c5P5IAaw+g892Q4u2E8KRxfn/14CNZ5x0ElOGfCF/8wvniIqxwca4NXAQe+Uf08B47qT/W5ThPIxvMiebX+rt/58Z85qGpANABVZDF5PiUJnCMiaaKNzPJrkCOdhAWAVcROgaEC2KEZXZm4p9o7LEZ5qc12n0cZzHgvjeNi6zYlUU74W7ysfoONF8mKaOv/X/V7BxswcHWj50AVBUaT+bAs4vFzH0WXTz0Scxl6URxejoEFH8iMrd45aCu818oZOYwbnnO0Z8HN8623y4BLLMnZYosjOZFL3NUnTtlog4B0SWvTX/g8p3sdmQu+/wEmz1nc3KnxhQAAAABJRU5ErkJggg==;" vertex="1" parent="13">
                    <mxGeometry x="478.0487804878049" y="15.16304347826087" width="50" height="50" as="geometry"/>
                </mxCell>
                <mxCell id="15" value="Target Group - ms-book-main" style="rounded=0;whiteSpace=wrap;html=1;align=center;verticalAlign=top;spacingLeft=0;" vertex="1" parent="13">
                    <mxGeometry x="27.31707317073171" y="113.72282608695652" width="232.19512195121953" height="416.9836956521739" as="geometry"/>
                </mxCell>
                <mxCell id="16" value="Target Group - ms-login-main" style="rounded=0;whiteSpace=wrap;html=1;align=center;verticalAlign=top;spacingLeft=0;" vertex="1" parent="13">
                    <mxGeometry x="300.4878048780488" y="113.72282608695652" width="232.19512195121953" height="416.9836956521739" as="geometry"/>
                </mxCell>
                <mxCell id="18" value="&amp;nbsp;AWS Fargate" style="rounded=0;whiteSpace=wrap;html=1;align=left;verticalAlign=top;" vertex="1" parent="13">
                    <mxGeometry x="40.97560975609756" y="166.79347826086956" width="204.87804878048783" height="348.75" as="geometry"/>
                </mxCell>
                <mxCell id="14" style="edgeStyle=orthogonalEdgeStyle;rounded=0;orthogonalLoop=1;jettySize=auto;html=1;exitX=0;exitY=0.5;exitDx=0;exitDy=0;entryX=1;entryY=0.5;entryDx=0;entryDy=0;startArrow=classic;startFill=1;" edge="1" parent="1" source="4" target="11">
                    <mxGeometry relative="1" as="geometry"/>
                </mxCell>
                <mxCell id="4" value="Frontend" style="swimlane;" vertex="1" parent="1">
                    <mxGeometry x="880" y="429" width="200" height="200" as="geometry"/>
                </mxCell>
                <mxCell id="9" value="" style="group" vertex="1" connectable="0" parent="4">
                    <mxGeometry x="30" y="65" width="140" height="100" as="geometry"/>
                </mxCell>
                <mxCell id="6" value="S3: Bucket" style="rounded=0;whiteSpace=wrap;html=1;align=center;verticalAlign=top;" vertex="1" parent="9">
                    <mxGeometry width="140" height="100" as="geometry"/>
                </mxCell>
                <mxCell id="7" value="React App" style="rounded=0;whiteSpace=wrap;html=1;align=center;verticalAlign=top;" vertex="1" parent="9">
                    <mxGeometry x="10" y="30" width="120" height="30" as="geometry"/>
                </mxCell>
                <mxCell id="8" value="Static Data" style="rounded=0;whiteSpace=wrap;html=1;align=center;verticalAlign=top;" vertex="1" parent="9">
                    <mxGeometry x="10" y="60" width="120" height="30" as="geometry"/>
                </mxCell>
            </root>
        </mxGraphModel>
    </diagram>
</mxfile>